<mxfile host="app.diagrams.net" agent="Mozilla/5.0 (Windows NT 10.0; Win64; x64) AppleWebKit/537.36 (KHTML, like Gecko) Chrome/139.0.0.0 Safari/537.36 Edg/139.0.0.0" version="28.2.0">
  <diagram name="Page-1" id="cxOEPPb0Qc63uEIKlSEK">
    <mxGraphModel dx="778" dy="482" grid="1" gridSize="10" guides="0" tooltips="1" connect="1" arrows="1" fold="1" page="1" pageScale="1" pageWidth="850" pageHeight="1100" background="light-dark(#FFFFFF,#FFFFFF)" math="0" shadow="0">
      <root>
        <mxCell id="0" />
        <mxCell id="1" parent="0" />
        <mxCell id="wYWg5E7ERfLdNEXwxoH3-2" value="" style="outlineConnect=0;dashed=0;verticalLabelPosition=bottom;verticalAlign=top;align=center;html=1;shape=mxgraph.aws3.sqs;fillColor=#D9A741;gradientColor=none;" parent="1" vertex="1">
          <mxGeometry x="110" y="173.5" width="66.5" height="66.5" as="geometry" />
        </mxCell>
        <mxCell id="wYWg5E7ERfLdNEXwxoH3-3" value="" style="outlineConnect=0;dashed=0;verticalLabelPosition=bottom;verticalAlign=top;align=center;html=1;shape=mxgraph.aws3.lambda_function;fillColor=#F58534;gradientColor=none;" parent="1" vertex="1">
          <mxGeometry x="350" y="173.5" width="69" height="72" as="geometry" />
        </mxCell>
        <mxCell id="wYWg5E7ERfLdNEXwxoH3-4" value="Vaas_parser_sqs" style="text;html=1;align=center;verticalAlign=middle;whiteSpace=wrap;rounded=0;" parent="1" vertex="1">
          <mxGeometry x="110" y="242" width="60" height="30" as="geometry" />
        </mxCell>
        <mxCell id="wYWg5E7ERfLdNEXwxoH3-5" value="" style="endArrow=classic;html=1;rounded=0;" parent="1" edge="1">
          <mxGeometry width="50" height="50" relative="1" as="geometry">
            <mxPoint x="190" y="210" as="sourcePoint" />
            <mxPoint x="340" y="210" as="targetPoint" />
          </mxGeometry>
        </mxCell>
        <mxCell id="wYWg5E7ERfLdNEXwxoH3-6" value="" style="outlineConnect=0;dashed=0;verticalLabelPosition=bottom;verticalAlign=top;align=center;html=1;shape=mxgraph.aws3.dynamo_db;fillColor=#2E73B8;gradientColor=none;" parent="1" vertex="1">
          <mxGeometry x="590" y="240" width="70" height="70" as="geometry" />
        </mxCell>
        <mxCell id="wYWg5E7ERfLdNEXwxoH3-7" value="" style="endArrow=classic;html=1;rounded=0;" parent="1" edge="1">
          <mxGeometry width="50" height="50" relative="1" as="geometry">
            <mxPoint x="425" y="231" as="sourcePoint" />
            <mxPoint x="570" y="283" as="targetPoint" />
          </mxGeometry>
        </mxCell>
        <mxCell id="wYWg5E7ERfLdNEXwxoH3-8" value="General_Weather_Data" style="text;html=1;align=center;verticalAlign=middle;whiteSpace=wrap;rounded=0;" parent="1" vertex="1">
          <mxGeometry x="601" y="304" width="60" height="30" as="geometry" />
        </mxCell>
        <mxCell id="wYWg5E7ERfLdNEXwxoH3-9" value="" style="outlineConnect=0;dashed=0;verticalLabelPosition=bottom;verticalAlign=top;align=center;html=1;shape=mxgraph.aws3.sns;fillColor=#D9A741;gradientColor=none;" parent="1" vertex="1">
          <mxGeometry x="350" y="350" width="60" height="60" as="geometry" />
        </mxCell>
        <mxCell id="wYWg5E7ERfLdNEXwxoH3-10" value="" style="endArrow=classic;html=1;rounded=0;" parent="1" edge="1">
          <mxGeometry width="50" height="50" relative="1" as="geometry">
            <mxPoint x="383" y="253" as="sourcePoint" />
            <mxPoint x="383" y="343" as="targetPoint" />
          </mxGeometry>
        </mxCell>
        <mxCell id="wYWg5E7ERfLdNEXwxoH3-11" value="" style="outlineConnect=0;dashed=0;verticalLabelPosition=bottom;verticalAlign=top;align=center;html=1;shape=mxgraph.aws3.dynamo_db;fillColor=#2E73B8;gradientColor=none;" parent="1" vertex="1">
          <mxGeometry x="579" y="88" width="70" height="70" as="geometry" />
        </mxCell>
        <mxCell id="wYWg5E7ERfLdNEXwxoH3-12" value="" style="endArrow=classic;html=1;rounded=0;" parent="1" edge="1">
          <mxGeometry width="50" height="50" relative="1" as="geometry">
            <mxPoint x="425" y="189" as="sourcePoint" />
            <mxPoint x="560" y="140" as="targetPoint" />
          </mxGeometry>
        </mxCell>
        <mxCell id="wYWg5E7ERfLdNEXwxoH3-13" value="WMO_Failure" style="text;html=1;align=center;verticalAlign=middle;whiteSpace=wrap;rounded=0;" parent="1" vertex="1">
          <mxGeometry x="589" y="160" width="60" height="30" as="geometry" />
        </mxCell>
        <mxCell id="wYWg5E7ERfLdNEXwxoH3-15" value="General_Weather_SNS" style="text;html=1;align=center;verticalAlign=middle;whiteSpace=wrap;rounded=0;" parent="1" vertex="1">
          <mxGeometry x="359" y="406" width="60" height="30" as="geometry" />
        </mxCell>
      </root>
    </mxGraphModel>
  </diagram>
</mxfile>
